# xmcd
#
# Track frame offsets:
# 150
# 15822
# 31515
# 49832
# 65400
# 80577
# 97900
# 111125
# 125020
# 138685
#
# Disc length: 2058 seconds
#
#
# Revision: 4
# Processed by: cddbd v1.4PL0 Copyright (c) Steve Scherf et al.
# Submitted via: FreeRIP 2.11 
#
DISCID=7808080a
DTITLE=Doug Stone - I Thought It Was You
DYEAR=1991
DGENRE=Country
TTITLE0=I Thought It Was You
TTITLE1=A Jukebox With A Country Song
TTITLE2=The Feeling Never Goes Away
TTITLE3=(For Every Inch I've Laughed) I've Cried A Mile
TTITLE4=Remember The Ride
TTITLE5=Come In Out Of The Pain
TTITLE6=Burning Down The Town
TTITLE7=If It Was Up To Me
TTITLE8=The Right To Remain Silent
TTITLE9=They Don't Make Years Like They Used To
EXTD=
EXTT0=
EXTT1=
EXTT2=
EXTT3=
EXTT4=
EXTT5=
EXTT6=
EXTT7=
EXTT8=
EXTT9=
PLAYORDER=
